PathFileType	4	(X/Y/Z)	RBDS024\RBDS024runT35.trc
DataRate	CameraRate	NumFrames	NumMarkers	Units	OrigDataRate	OrigDataStartFrame	OrigNumFrames
150.000000	150.000000	4	33	mm	150.000000	1687	4500
Frame#	Time	L.ASIS			L.Heel.Bottom			L.Heel.Lateral			L.Heel.Top			L.Iliac.Crest			L.MT1			L.MT5			L.PSIS			L.Shank.Bottom.Lateral			L.Shank.Bottom.Medial			L.Shank.Top.Lateral			L.Shank.Top.Medial			L.Thigh.Bottom.Lateral			L.Thigh.Bottom.Medial			L.Thigh.Top.Lateral			L.Thigh.Top.Medial			R.ASIS			R.ASY			R.Heel.Bottom			R.Heel.Lateral			R.Heel.Top			R.Iliac.Crest			R.MT1			R.MT5			R.PSIS			R.Shank.Bottom.Lateral			R.Shank.Bottom.Medial			R.Shank.Top.Lateral			R.Shank.Top.Medial			R.Thigh.Bottom.Lateral			R.Thigh.Bottom.Medial			R.Thigh.Top.Lateral			R.Thigh.Top.Medial			
		X1	Y1	Z1	X2	Y2	Z2	X3	Y3	Z3	X4	Y4	Z4	X5	Y5	Z5	X6	Y6	Z6	X7	Y7	Z7	X8	Y8	Z8	X9	Y9	Z9	X10	Y10	Z10	X11	Y11	Z11	X12	Y12	Z12	X13	Y13	Z13	X14	Y14	Z14	X15	Y15	Z15	X16	Y16	Z16	X17	Y17	Z17	X18	Y18	Z18	X19	Y19	Z19	X20	Y20	Z20	X21	Y21	Z21	X22	Y22	Z22	X23	Y23	Z23	X24	Y24	Z24	X25	Y25	Z25	X26	Y26	Z26	X27	Y27	Z27	X28	Y28	Z28	X29	Y29	Z29	X30	Y30	Z30	X31	Y31	Z31	X32	Y32	Z32	X33	Y33	Z33	

1688	11.24666666666667	2208.006112512659	997.0375495666514	869.3864513982237	1489.604091871037	415.1861172382975	972.6174995300096	1501.919369832438	395.6221537139378	925.7587847993423	1533.337600881907	413.5958861000103	964.023313254525	2137.848910380908	1085.243475430728	824.3605953958098	1543.640489380483	196.6936120454762	995.479466649667	1504.745072555672	231.1015336048191	889.6345259900169	2034.483831507958	1065.343486908464	935.9596123356637	1622.755361301285	393.6105102096938	892.1881816219744	1605.451357985935	430.6646871015973	923.2440573756641	1685.926774254305	439.2188459356185	868.742911800806	1671.518353978764	478.9296616999143	900.8355212681078	1972.493953460457	660.8849019421846	824.4841264525181	1921.235559522841	683.4386436681253	869.4673227263802	2001.487484630144	766.7686995737057	810.763979988664	1956.183821063319	787.4634075697727	857.8408208466507	2199.592723530212	1015.767838315171	1092.068281268987	2504.863512657472	168.8075839975398	1007.297536459662	2348.922022274	63.89048263042964	962.5989104011012	2372.849686388087	76.02518998185701	1014.130364605727	2341.226497322921	104.7193000551529	977.248979088811	2135.855582364336	1103.740651415053	1144.100749280103	2547.530370211774	158.222749945294	946.9993315588529	2528.81545231991	107.2769847630585	1048.39716573394	2032.753239298521	1064.172523685906	1039.475739046809	2346.164237931572	212.2200163973293	1053.99899530073	2314.76361221308	214.2608795456252	1008.191575057764	2312.443409504373	282.0127932271611	1078.079473244362	2282.258527221678	283.6819811411928	1033.164667159472	2222.300768055289	649.1616668839447	1147.220340481694	2168.946007960575	628.8336878370487	1102.556077504856	2168.047960512693	742.0825026170168	1166.935777110699	2116.577025896896	721.9525818644236	1125.921665221315	
1689	11.25333333333333	2209.210950448044	995.3351530188878	869.0453737298046	1489.63034598066	430.6859906401803	972.0852976895712	1501.617648689946	410.8106378719305	925.3073045465433	1533.287526820521	427.6784107235569	963.8508469883978	2137.494648433709	1083.735614830169	823.9109901795625	1536.139569707567	210.9276485460815	995.3542756140547	1499.375471672671	246.6606794141147	889.1185021165978	2034.953514600732	1062.186257409522	934.6464329532123	1622.72940752947	403.4087450334858	892.2327286989718	1606.727926793637	441.6556258675867	922.6580903495405	1687.971258726648	446.0521196966685	868.6821772905951	1675.032338222217	486.7664001299886	900.1496481506802	1978.583964071394	655.8774340420251	824.1666525503167	1926.51662630233	678.3068429687847	868.3541642436373	2006.586844083767	761.9214295259692	809.8411106982262	1960.101661061532	782.6677817527483	855.8645869086725	2199.332961001609	1013.753246648357	1092.242106875724	2510.164859332378	169.427854593586	1005.689892664357	2357.067074353448	61.06358687254961	958.7840096480952	2380.777555014593	72.72370251880621	1010.502036837729	2348.159193766022	101.369894980157	974.3923718853476	2135.16654490938	1100.814119083351	1143.842009897507	2553.098402914795	161.7332835954497	945.0463188816724	2535.966405015	107.3996107029496	1045.210859723876	2032.505758752993	1061.28930667515	1038.238431379224	2349.071610571469	209.08836081156	1051.396922542966	2318.60239280814	210.8626381908981	1004.870509276749	2313.203023925566	277.9849155049558	1075.424910863951	2284.024483421576	279.4476306664877	1029.73139298067	2217.344005244908	645.3100337541405	1146.579292637845	2164.251370910329	626.1873374662356	1100.923997418054	2164.111362788876	739.0262483648704	1165.987617394906	2112.994023136926	720.0010709612407	1123.97628179607	
1690	11.26	2210.450516885794	993.0325690232208	868.8697577673312	1491.518255335706	445.9788091299897	971.4711815265289	1502.99704955637	425.7394364839732	924.7579575530924	1535.015247036401	441.42121674896	963.4577415169297	2137.488329347852	1081.384352028572	823.1947944286654	1529.831801306488	225.0031692715988	995.0142763930297	1495.120706473958	262.0894718855008	888.494605852725	2035.425148877571	1058.335205668727	932.9261867107869	1624.049813078694	412.7832538923811	892.0745132317021	1609.44244607784	452.0833023671528	921.9506084955747	1691.204279709337	452.3659371930427	868.4831608046309	1679.843428625472	493.9381501191205	899.4359050653902	1984.899685667684	650.1533628161468	823.9228179201942	1932.108118021737	672.3056093688227	867.4656042366069	2011.702175430538	756.3790357783536	809.0509263225443	1964.154310367113	777.0463476914449	854.1508988549242	2198.890087906946	1011.550491950662	1092.583684982485	2512.620815711702	168.3451888415838	1004.456776286596	2361.554376814342	58.24731408804688	955.1061193299105	2385.000564844213	69.22301776941623	1007.050083934054	2351.853745453019	98.08315221455136	971.6061218800975	2134.016382675147	1097.519126219358	1143.480614820116	2555.809273346353	162.9546966469309	943.6206346194534	2539.504797823864	105.7514994351113	1042.577298167551	2032.132308969839	1057.838100242064	1036.654371132437	2349.750808241654	205.6826067702692	1048.877773969816	2320.200147550858	207.4132411836487	1001.636838407765	2312.35051985065	273.9926460453033	1072.772439155124	2284.19190648182	275.4226436946344	1026.317299385829	2213.075905988726	641.6711215116098	1145.531959292126	2160.154063696849	623.5136977133423	1099.142036113032	2160.638250416158	736.0135398664739	1164.753036037116	2109.810934855275	717.8925844248974	1121.931316999841	
1691	11.26666666666667	2211.691643156814	990.1580982722893	868.8416141362004	1495.305401629884	460.9442663702887	970.7719751421571	1506.094944613156	440.311769749293	924.1060990619886	1538.549324795547	454.7182634362034	962.8499377223465	2137.875419099687	1078.196844064666	822.1888392705798	1524.827667698821	238.8277957921242	994.3709282237199	1492.081960209817	277.3268820926631	887.6878652399499	2035.901034282113	1053.828851391858	930.8099660391032	1626.749425261866	421.6927748555543	891.6913330153532	1613.634774571718	461.8870050554781	921.1229586881678	1695.653242061398	458.1246621264752	868.1269404337665	1685.973459007075	500.3918936475787	898.6912439407355	1991.396951480947	643.7660907723129	823.7336836751178	1937.972968214428	665.4759284231939	866.7928363642155	2016.77667147452	750.192507080602	808.3842056066374	1968.311123363483	770.6343017107554	852.7208169035	2198.276564359119	1009.178257391872	1093.065453221432	2512.270344131764	165.3669109402163	1003.517010039258	2362.305493321045	55.26680054792734	951.647679144285	2385.460112203648	65.35791379441564	1003.839001455743	2352.258985588515	94.71195159499827	968.9456346665262	2132.420971592394	1093.910583473056	1142.987158253237	2555.714915192825	161.6107789181606	942.6104202681288	2539.456964873108	102.1490705259618	1040.472603377092	2031.663287096996	1053.851128288242	1034.737063877496	2348.260400718842	201.8476275138754	1046.519849237988	2319.533845890876	203.7329126624187	998.6257357488425	2309.965129347775	269.9105107063376	1070.247458944469	2282.759313178442	271.4583800337301	1023.101921622215	2209.567287614117	638.1890474653406	1144.134339902022	2156.712929367313	620.7415026010004	1097.280764740089	2157.704301626201	732.9989551956207	1163.27827642344	2107.083937263063	715.5702308319879	1119.852836672347	
